<?xml version="1.0" standalone="no"?>
<svg width="925"
     height="600"
     viewBox="0 0 850 600"
     preserveAspectRatio="xMidYMid meet"
     xmlns="http://www.w3.org/2000/svg">
  
  
  
  <!-- Bottom Line-->
  
  <path stroke="#74838f" stroke-width="2" fill="none"  d="M 50 50 L 850 50" />
  

  <!-- Y axis labels-->
  <text
    x="45"
    font-family="-apple-system, system-ui, BlinkMacSystemFont, Roboto"
    y="50"
    dominant-baseline="middle"
    text-anchor="end"
    font-size="12"
    fill="#74838f"
    font-weight="bold"
    >
    198
  </text>
  
  
  <!-- Dashed line-->
  
  <path stroke="#74838f" stroke-dasharray="10 6" stroke-width="0.5"  d="M 50 300 L 850 300" />
  

  <!-- Y axis labels-->
  <text
    x="45"
    font-family="-apple-system, system-ui, BlinkMacSystemFont, Roboto"
    y="300"
    dominant-baseline="middle"
    text-anchor="end"
    font-size="12"
    fill="#74838f"
    font-weight="bold"
    >
    99
  </text>
  
  
  <!-- Top Line -->
  
  <path stroke="#74838f" stroke-width="2" fill="none"  d="M 50 550 L 850 550" />
  

  <!-- Y axis labels-->
  <text
    x="45"
    font-family="-apple-system, system-ui, BlinkMacSystemFont, Roboto"
    y="550"
    dominant-baseline="middle"
    text-anchor="end"
    font-size="12"
    fill="#74838f"
    font-weight="bold"
    >
    0
  </text>
  

  
  
  
  <!-- Bottom ticks -->
  <path stroke="#74838f" stroke-width="2.0" d="M 50 550 L 50 560" />

  <!-- Y axis labels-->
  <text
    x="80"
    font-family="-apple-system, system-ui, BlinkMacSystemFont, Roboto"
    y="570"
    dominant-baseline="middle"
    text-anchor="end"
    font-size="12"
    fill="#74838f"
    font-weight="bold"
    >
    2021-10-12
  </text>
  
  
  <!-- Bottom ticks -->
  <path stroke="#74838f" stroke-width="2.0" d="M 450 550 L 450 560" />

  <!-- Y axis labels-->
  <text
    x="480"
    font-family="-apple-system, system-ui, BlinkMacSystemFont, Roboto"
    y="570"
    dominant-baseline="middle"
    text-anchor="end"
    font-size="12"
    fill="#74838f"
    font-weight="bold"
    >
    2021-01-09
  </text>
  
  
  <!-- Bottom ticks -->
  <path stroke="#74838f" stroke-width="2.0" d="M 850 550 L 850 560" />

  <!-- Y axis labels-->
  <text
    x="880"
    font-family="-apple-system, system-ui, BlinkMacSystemFont, Roboto"
    y="570"
    dominant-baseline="middle"
    text-anchor="end"
    font-size="12"
    fill="#74838f"
    font-weight="bold"
    >
    2020-04-07
  </text>
  

  <!-- Line plots-->
  <path stroke="#D2222D" stroke-linejoin="round" d="M 50 370.7070707070707 L 51.587078335939474 360.6060606060606 L 53.22672014586699 451.5151515151515 L 58.510002972828175 335.35353535353534 L 58.510438766936495 448.98989898989896 L 61.10986681650162 448.98989898989896 L 68.4344260081421 411.1111111111111 L 68.43454333732511 448.98989898989896 L 69.08129531669462 411.1111111111111 L 69.08139588456577 448.98989898989896 L 71.32027135474414 426.26262626262627 L 71.32038868392715 448.98989898989896 L 71.69842331158225 448.98989898989896 L 72.75433567472797 416.16161616161617 L 74.13576947547632 448.98989898989896 L 74.14150184413191 448.98989898989896 L 79.99225564537221 514.6464646464647 L 94.42374515548327 486.86868686868684 L 94.42414742696788 494.44444444444446 L 99.18647192005709 494.44444444444446 L 100.76061052324187 300 L 104.78330860795398 279.7979797979798 L 104.7834594597607 529.7979797979798 L 112.03619643008781 259.59595959595964 L 112.03643108845382 529.7979797979798 L 113.391482584337 529.7979797979798 L 113.3916837200793 279.7979797979798 L 122.84528150528983 244.4444444444444 L 122.84546587972028 539.8989898989898 L 125.26620158356265 539.8989898989898 L 140.9844737663575 118.18181818181819 L 143.66413821578894 118.18181818181819 L 155.23532661857024 539.8989898989898 L 160.36435509249824 320.2020202020202 L 160.36443889905752 539.8989898989898 L 169.88352312969897 539.8989898989898 L 169.88362369757013 337.8787878787879 L 175.4995850422975 383.33333333333337 L 175.5000543590295 539.8989898989898 L 175.50871995726033 413.6363636363636 L 184.2698576656634 539.8989898989898 L 184.27014260796503 438.8888888888889 L 200.1457029412394 443.93939393939394 L 200.14583703173426 550 L 200.60943815642668 550 L 200.60968957610456 428.78787878787875 L 200.61094667449393 550 L 200.61103048105323 347.979797979798 L 200.61186854664615 522.2222222222222 L 204.6488640303735 219.19191919191917 L 204.6489478369328 550 L 204.6490986887395 522.2222222222222 L 216.47660107245997 428.78787878787875 L 216.47671840164298 550 L 216.47685249213785 550 L 224.7638294493777 550 L 224.76393001724887 272.22222222222223 L 231.56144651881277 292.42424242424244 L 231.56159737061947 550 L 231.5619493581685 292.42424242424244 L 236.33952664504892 320.2020202020202 L 241.1927477323464 550 L 241.1928315389057 269.69696969696975 L 241.66737780024167 239.39393939393938 L 241.66739456155352 550 L 251.39980000821726 269.69696969696975 L 253.71889511695005 259.59595959595964 L 253.71906273006863 550 L 255.2234072306749 239.39393939393938 L 260.9966734871937 259.59595959595964 L 262.79584946338974 289.8989898989899 L 263.49260043603294 294.949494949495 L 263.49261719734477 550 L 264.940844825849 294.949494949495 L 267.83676372087797 550 L 269.2849745880703 342.92929292929296 L 270.73330278444575 342.92929292929296 L 270.7333195457576 550 L 272.18141308376687 342.92929292929296 L 272.1814298450787 550 L 273.62977480276595 373.2323232323232 L 273.62979156407783 550 L 275.07798566995837 373.2323232323232 L 276.52609596927954 550 L 277.9740386554821 370.7070707070707 L 279.42221600005075 370.7070707070707 L 279.42223276136264 550 L 280.870560957738 370.7070707070707 L 280.8705777190499 550 L 285.2151097527558 151.01010101010098 L 285.2151265140676 403.5353535353535 L 286.6631362455177 151.01010101010098 L 288.11122978352705 135.85858585858585 L 289.5594238894075 135.85858585858585 L 289.55944065071935 403.5353535353535 L 291.00803702808446 403.5353535353535 L 292.4559797142871 105.5555555555556 L 293.9040564909846 110.60606060606062 L 293.9040732522964 393.4343434343434 L 296.80074640635905 188.8888888888889 L 297.2698955252765 269.69696969696975 L 297.29269090940403 269.69696969696975 L 297.29366306549184 269.69696969696975 L 299.69673234663543 380.80808080808083 L 301.1452784400649 380.80808080808083 L 302.5936066364403 168.68686868686865 L 302.59362339775214 347.979797979798 L 304.04141523214804 183.83838383838383 L 305.48959257671663 103.03030303030306 L 306.9377363986616 103.03030303030306 L 306.93775315997345 342.92929292929296 L 308.3857628914235 342.92929292929296 L 309.83388995205655 97.97979797979798 L 311.28248632942166 97.97979797979798 L 312.7306301513666 403.5353535353535 L 314.1792935739791 403.5353535353535 L 317.07501133326576 204.04040404040404 L 318.52297078078027 403.5353535353535 L 319.97114812534886 196.46464646464648 L 321.41956012828354 403.5353535353535 L 322.8676536662929 196.46464646464648 L 324.3157639656141 474.24242424242425 L 325.7639915941183 125.75757575757575 L 325.7640083554302 474.24242424242425 L 327.21215217737506 474.24242424242425 L 328.66029599932 168.68686868686865 L 331.5566674497691 168.68686868686865 L 333.0050626913919 168.68686868686865 L 333.0050794527038 474.24242424242425 L 334.45337412645546 474.24242424242425 L 337.3497455769046 330.3030303030303 L 338.7974536047412 441.4141414141414 L 338.797470366053 474.24242424242425 L 341.6939423843733 441.4141414141414 L 341.69395914568514 474.24242424242425 L 343.14230410337234 229.29292929292927 L 344.59046468662916 219.19191919191917 L 347.4869367049494 209.09090909090912 L 347.4869534662613 464.14141414141415 L 348.9346950167216 183.83838383838383 L 351.8314519773435 183.83838383838383 L 351.83146873865536 459.0909090909091 L 353.27929409567497 183.83838383838383 L 354.72748820155545 239.39393939393938 L 356.1756655461241 279.7979797979798 L 356.1756823074359 448.98989898989896 L 357.62387641331645 279.7979797979798 L 357.6238931746283 448.98989898989896 L 358.17475368885573 436.3636363636364 L 359.0719029060784 448.98989898989896 L 360.52013053458256 456.5656565656566 L 361.9683414017749 456.5656565656566 L 363.416468462408 92.92929292929296 L 364.8649642719019 50 L 366.3128399128571 50 L 367.7612519157917 50 L 369.2092616472418 550 L 372.10556605244346 550 L 373.55374339701217 55.05050505050502 L 375.00200454814006 55.05050505050502 L 376.45031598320355 550 L 377.89824190809435 550 L 378.7150206349558 186.36363636363637 L 378.76411451738915 550 L 378.97656414519474 272.22222222222223 L 379.3463522074155 272.22222222222223 L 380.79449602936046 272.22222222222223 L 382.2427907031121 272.22222222222223 L 383.04207062039336 221.7171717171717 L 383.0428584020507 221.7171717171717 L 383.69106861555184 221.7171717171717 L 388.03548332007483 196.46464646464648 L 388.03550008138666 550 L 389.4835768580841 226.76767676767673 L 390.93172068002906 226.76767676767673 L 390.9317374413409 550 L 393.8282429822849 550 L 395.27642032685355 550 L 396.72451386486284 257.07070707070704 L 398.17284206123827 550 L 399.6208182700646 550 L 401.0690626598807 358.0808080808081 L 402.51740761756787 358.0808080808081 L 403.96556820082463 550 L 405.4137287840814 550 L 408.30998290534757 363.13131313131316 L 409.7580261594213 368.1818181818182 L 411.20622026530185 368.1818181818182 L 412.65446465511786 368.1818181818182 L 414.1077039158678 388.38383838383834 L 414.1336169040009 388.38383838383834 L 415.55095343475006 378.2828282828283 L 416.99918106325424 378.2828282828283 L 418.4471572720806 393.4343434343434 L 419.1734584375302 403.5353535353535 L 419.1737433798318 403.5353535353535 L 419.8952508100899 403.5353535353535 L 419.8952675714018 550 L 421.3435119612178 403.5353535353535 L 424.2399169342907 550 L 425.68806075623564 550 L 427.1361878168687 403.5353535353535 L 428.5843819227492 550 L 430.03254250600594 550 L 431.4807198505746 550 L 432.92886367251947 403.5353535353535 L 434.3771080623356 550 L 435.82523512296865 433.83838383838383 L 437.27346275147283 433.83838383838383 L 437.2734795127847 550 L 438.7215562894822 433.83838383838383 L 440.16985096323384 550 L 441.6179445012432 433.83838383838383 L 443.06613860712366 433.83838383838383 L 443.06615536843555 550 L 444.5143662356279 433.83838383838383 L 445.9624765349491 413.6363636363636 L 445.96249329626096 550 L 447.4106538795177 413.6363636363636 L 448.8589485532694 413.6363636363636 L 448.8589653145812 550 L 450.30699180734314 413.6363636363636 L 451.75528648109474 413.6363636363636 L 453.2034303030397 413.6363636363636 L 453.20344706435156 550 L 454.6516411702321 550 L 457.5479958593693 373.2323232323232 L 458.9961564426261 550 L 459.8333839699548 464.14141414141415 L 459.8335348217616 464.14141414141415 L 460.44430026457104 474.24242424242425 L 461.8924608478278 550 L 463.34073876026764 474.24242424242425 L 464.78886582090064 312.6262626262626 L 466.23699288153375 302.52525252525254 L 466.2370096428456 550 L 467.68523727134976 302.52525252525254 L 469.1334481385422 302.52525252525254 L 470.58180985754115 312.6262626262626 L 470.5818266188531 550 L 473.4779466496243 312.6262626262626 L 474.92640893649457 322.72727272727275 L 474.9264256978064 550 L 476.374251054826 342.92929292929296 L 477.82252896726584 342.92929292929296 L 480.08649612129625 373.2323232323232 L 480.7187998498438 373.2323232323232 L 482.16704423965984 373.2323232323232 L 482.1670610009717 550 L 483.6151545389811 373.2323232323232 L 483.6151713002929 550 L 485.06356654191575 550 L 486.5115595120539 231.8181818181818 L 487.9597871405581 550 L 489.4081488595572 550 L 490.85605802313614 211.6161616161616 L 490.8560747844479 550 L 492.30537513691115 211.6161616161616 L 493.75236242833773 211.6161616161616 L 495.200942044391 221.7171717171717 L 496.6488176853463 221.7171717171717 L 498.0968944620437 550 L 499.54512209054786 302.52525252525254 L 499.5451388518598 550 L 500.12982369341745 393.4343434343434 L 500.1379194070451 393.4343434343434 L 500.993366480364 393.4343434343434 L 502.4415773475563 550 L 503.8896206016301 393.4343434343434 L 505.3377811848869 393.4343434343434 L 508.23421968058346 363.13131313131316 L 509.68231321859275 363.13131313131316 L 509.68232997990464 550 L 511.13065817628006 363.13131313131316 L 512.5786511464182 550 L 514.0271637172241 550 L 515.4750896421148 363.13131313131316 L 515.4751064034266 550 L 516.9232669866834 550 L 518.3715784217469 282.32323232323233 L 519.8197222436918 302.52525252525254 L 520.4081616191058 358.0808080808081 L 520.4089661620751 368.1818181818182 L 522.7158590357749 368.1818181818182 L 524.1641034255911 368.1818181818182 L 524.9986659043343 297.47474747474746 L 524.9988838013884 297.47474747474746 L 524.999051414507 297.47474747474746 L 525.6737109781209 252.02020202020202 L 525.6737277394327 550 L 527.0605754439113 550 L 529.956997178296 257.07070707070704 L 529.9570139396078 550 L 531.4049901484342 257.07070707070704 L 532.8530836864436 257.07070707070704 L 534.3016297798731 257.07070707070704 L 534.3016465411849 550 L 537.1977665719562 550 L 538.6463294266975 342.92929292929296 L 540.0940877384697 393.4343434343434 L 540.0941044997816 550 L 540.657519236591 393.4343434343434 L 541.5424997414043 393.4343434343434 L 548.7832356124409 277.2727272727273 L 549.173338384634 277.2727272727273 L 551.6795735402662 272.22222222222223 L 553.1277173622111 272.22222222222223 L 554.5758947067798 272.22222222222223 L 558.9206949214754 358.0808080808081 L 561.8167646683112 426.26262626262627 L 565.417396159116 310.1010101010101 L 567.6094740465857 209.09090909090912 L 570.5058957809704 219.19191919191917 L 571.9539725576678 221.7171717171717 L 573.4022672314195 221.7171717171717 L 574.8503942920526 221.7171717171717 L 577.7470674461152 259.59595959595964 L 579.1950268936296 239.39393939393938 L 580.6435059418117 244.4444444444444 L 581.2469466913391 310.1010101010101 L 582.0911972083364 310.1010101010101 L 583.539391314217 310.1010101010101 L 584.9878200784634 310.1010101010101 L 586.4361482748388 254.5454545454545 L 587.8839401092347 305.0505050505051 L 592.2284721429406 330.3030303030303 L 595.1249776838846 340.4040404040404 L 596.5731382671414 330.3030303030303 L 598.0212150438389 322.72727272727275 L 602.0264143189709 342.92929292929296 L 602.3657470775448 342.92929292929296 L 603.8140417512965 342.92929292929296 L 605.2623196637362 355.55555555555554 L 606.7108657571657 330.3030303030303 L 608.1585235010668 262.1212121212121 L 609.6068014135066 292.42424242424244 L 611.0549117128278 332.8282828282828 L 611.3635377480772 327.7777777777778 L 611.4696871360766 317.67676767676767 L 611.5286701925064 327.7777777777778 L 612.5030052508371 327.7777777777778 L 613.9511323114701 327.7777777777778 L 615.3993264173507 335.35353535353534 L 616.8475875684786 358.0808080808081 L 618.2958654809183 302.52525252525254 L 619.7441266320463 325.2525252525253 L 621.1922034087438 297.47474747474746 L 621.7261852819297 368.1818181818182 L 626.9849965935776 254.5454545454545 L 628.4331068928989 264.64646464646466 L 631.3296124338428 193.93939393939394 L 632.7775551200455 173.73737373737373 L 635.673876286559 183.83838383838383 L 637.1221039150632 236.86868686868684 L 639.6636551547812 259.59595959595964 L 640.8130788767851 229.29292929292927 L 640.8133302964629 229.29292929292927 L 641.4665521422098 226.76767676767673 L 642.9146792028429 229.29292929292927 L 644.3627895021641 229.29292929292927 L 645.8112182664106 229.29292929292927 L 647.2593956109793 201.5151515151515 L 648.7075226716123 193.93939393939394 L 650.155565925686 171.2121212121212 L 654.5001147207039 130.80808080808083 L 655.94835911052 133.33333333333331 L 658.8447808449046 188.8888888888889 L 661.7410684887946 264.64646464646466 L 664.6373058487487 282.32323232323233 L 670.4310041444229 105.5555555555556 L 671.878427229958 176.26262626262627 L 673.3267051423977 201.5151515151515 L 674.774932770902 201.5151515151515 L 676.0743534727269 201.5151515151515 L 676.0746886989641 201.5151515151515 L 676.2229927862876 201.5151515151515 L 679.1193642367367 221.7171717171717 L 680.5674912973698 173.73737373737373 L 682.6552132572087 287.37373737373736 L 682.6558501870593 287.37373737373736 L 683.4637789412595 287.37373737373736 L 686.3604520953221 287.37373737373736 L 687.80871324645 140.90909090909088 L 689.256622410029 168.68686868686865 L 693.6009365466807 239.39393939393938 L 695.0491474138731 239.39393939393938 L 696.4974756102484 239.39393939393938 L 697.9460384649898 229.29292929292927 L 699.389422074367 254.5454545454545 L 700.8372641926984 252.02020202020202 L 705.1815950906621 254.5454545454545 L 708.0782179607891 234.34343434343435 L 709.5264288279814 231.8181818181818 L 712.4226494266238 224.24242424242425 L 713.870642396762 209.09090909090912 L 718.2154426114577 239.39393939393938 L 719.6638210917686 239.39393939393938 L 721.1123001399507 234.34343434343435 L 722.5681541653505 234.34343434343435 L 723.0925150455297 322.72727272727275 L 723.0931352140684 322.72727272727275 L 723.0932860658752 322.72727272727275 L 724.0079005700543 332.8282828282828 L 725.456295811677 332.8282828282828 L 726.9045904854288 365.6565656565657 L 729.8007943227593 264.64646464646466 L 731.2491225191347 264.64646464646466 L 732.6972328184559 294.949494949495 L 734.1453598790889 416.16161616161617 L 737.0419995105278 416.16161616161617 L 739.9383206770414 456.5656565656566 L 741.3865147829218 466.6666666666667 L 742.8346250822431 474.24242424242425 L 743.6542867547441 479.29292929292933 L 744.2825342458219 479.29292929292933 L 745.7309462487566 479.29292929292933 L 747.1791906385727 479.29292929292933 L 750.075293908032 418.6868686868687 L 751.523789717526 406.06060606060606 L 752.9721849591488 335.35353535353534 L 755.8680368089302 325.2525252525253 L 757.3162979600583 305.0505050505051 L 758.4728452396021 550 L 761.6609473229472 330.3030303030303 L 763.1091917127632 401.01010101010104 L 763.906527317869 375.75757575757575 L 764.5570505924065 375.75757575757575 L 766.005244698287 375.75757575757575 L 767.4535728946624 375.75757575757575 L 770.3499108224879 451.5151515151515 L 773.2463996021199 446.4646464646465 L 774.5781696358317 451.5151515151515 L 774.6941579138921 451.5151515151515 L 776.1423520197726 451.5151515151515 L 777.5906969774599 451.5151515151515 L 779.0389916512115 426.26262626262627 L 780.4871522344682 385.85858585858585 L 781.9353966242843 401.01010101010104 L 783.3838086272191 390.9090909090909 L 784.8314328484963 401.01010101010104 L 786.279828090119 401.01010101010104 L 789.1763671536868 408.5858585858586 L 789.564810556006 418.6868686868687 L 789.5651290209313 418.6868686868687 L 790.3592799767839 431.3131313131313 L 790.6247623953096 431.3131313131313 L 792.0726212749529 441.4141414141414 L 793.5208321421453 421.21212121212125 L 794.9687077831005 421.21212121212125 L 796.4168348437336 421.21212121212125 L 797.8652300853564 421.21212121212125 L 799.313407429925 421.21212121212125 L 802.2100135387402 443.93939393939394 L 803.6578891796953 454.04040404040404 L 804.3065016646812 504.54545454545456 L 805.1058989111453 504.54545454545456 L 808.0026391104554 504.54545454545456 L 810.8994631163247 411.1111111111111 L 812.3472549507205 438.8888888888889 L 813.7954658179129 459.0909090909091 L 815.2432073683733 464.14141414141415 L 816.6915355647486 464.14141414141415 L 819.5881919574994 464.14141414141415 L 821.0366877669933 423.73737373737373 L 825.3804655416656 474.24242424242425 L 828.7158157496871 484.34343434343435 L 831.173660997984 383.33333333333337 L 832.3220622799646 383.33333333333337 L 832.3238054563978 383.33333333333337 L 834.0700659710569 383.33333333333337 L 835.5177739988934 373.2323232323232 L 836.965968104774 373.2323232323232 L 838.4145980047629 373.2323232323232 L 839.8632111434397 363.13131313131316 L 841.3109526939 342.92929292929296 L 842.7591132771569 337.8787878787879 L 845.6550656948095 383.33333333333337 L 847.1033100846255 383.33333333333337 L 848.5517220875602 383.33333333333337 L 850 383.33333333333337" stroke-width="2.0" fill="none" />
  <path stroke="#238823" stroke-linejoin="round" d="M 50 502.020202020202 L 51.587078335939474 502.020202020202 L 53.22672014586699 550 L 58.510002972828175 539.8989898989898 L 58.510438766936495 550 L 61.10986681650162 550 L 68.4344260081421 161.1111111111111 L 68.43454333732511 550 L 69.08129531669462 161.1111111111111 L 69.08139588456577 550 L 71.32027135474414 145.95959595959596 L 71.32038868392715 550 L 71.69842331158225 550 L 72.75433567472797 135.85858585858585 L 74.13576947547632 550 L 74.14150184413191 550 L 79.99225564537221 539.8989898989898 L 94.42374515548327 514.6464646464647 L 94.42414742696788 550 L 99.18647192005709 550 L 100.76061052324187 550 L 104.78330860795398 550 L 104.7834594597607 550 L 112.03619643008781 550 L 112.03643108845382 550 L 113.391482584337 550 L 113.3916837200793 529.7979797979798 L 122.84528150528983 550 L 122.84546587972028 550 L 125.26620158356265 550 L 140.9844737663575 550 L 143.66413821578894 550 L 155.23532661857024 550 L 160.36435509249824 550 L 160.36443889905752 550 L 169.88352312969897 550 L 169.88362369757013 476.7676767676768 L 175.4995850422975 426.26262626262627 L 175.5000543590295 550 L 175.50871995726033 416.16161616161617 L 184.2698576656634 550 L 184.27014260796503 539.8989898989898 L 200.1457029412394 519.6969696969697 L 200.14583703173426 550 L 200.60943815642668 550 L 200.60968957610456 550 L 200.61094667449393 550 L 200.61103048105323 550 L 200.61186854664615 524.7474747474748 L 204.6488640303735 547.4747474747475 L 204.6489478369328 550 L 204.6490986887395 550 L 216.47660107245997 459.0909090909091 L 216.47671840164298 550 L 216.47685249213785 550 L 224.7638294493777 550 L 224.76393001724887 550 L 231.56144651881277 529.7979797979798 L 231.56159737061947 550 L 231.5619493581685 529.7979797979798 L 236.33952664504892 466.6666666666667 L 241.1927477323464 550 L 241.1928315389057 550 L 241.66737780024167 550 L 241.66739456155352 550 L 251.39980000821726 519.6969696969697 L 253.71889511695005 519.6969696969697 L 253.71906273006863 550 L 255.2234072306749 519.6969696969697 L 260.9966734871937 499.4949494949495 L 262.79584946338974 550 L 263.49260043603294 544.9494949494949 L 263.49261719734477 550 L 264.940844825849 544.9494949494949 L 267.83676372087797 550 L 269.2849745880703 484.34343434343435 L 270.73330278444575 484.34343434343435 L 270.7333195457576 550 L 272.18141308376687 484.34343434343435 L 272.1814298450787 550 L 273.62977480276595 411.1111111111111 L 273.62979156407783 550 L 275.07798566995837 411.1111111111111 L 276.52609596927954 550 L 277.9740386554821 390.9090909090909 L 279.42221600005075 390.9090909090909 L 279.42223276136264 550 L 280.870560957738 390.9090909090909 L 280.8705777190499 550 L 285.2151097527558 539.8989898989898 L 285.2151265140676 550 L 286.6631362455177 539.8989898989898 L 288.11122978352705 539.8989898989898 L 289.5594238894075 539.8989898989898 L 289.55944065071935 550 L 291.00803702808446 550 L 292.4559797142871 539.8989898989898 L 293.9040564909846 519.6969696969697 L 293.9040732522964 519.6969696969697 L 296.80074640635905 385.85858585858585 L 297.2698955252765 385.85858585858585 L 297.29269090940403 385.85858585858585 L 297.29366306549184 385.85858585858585 L 299.69673234663543 375.75757575757575 L 301.1452784400649 375.75757575757575 L 302.5936066364403 446.4646464646465 L 302.59362339775214 509.5959595959596 L 304.04141523214804 446.4646464646465 L 305.48959257671663 446.4646464646465 L 306.9377363986616 456.5656565656566 L 306.93775315997345 509.5959595959596 L 308.3857628914235 509.5959595959596 L 309.83388995205655 456.5656565656566 L 311.28248632942166 456.5656565656566 L 312.7306301513666 509.5959595959596 L 314.1792935739791 509.5959595959596 L 317.07501133326576 234.34343434343435 L 318.52297078078027 509.5959595959596 L 319.97114812534886 315.1515151515151 L 321.41956012828354 509.5959595959596 L 322.8676536662929 315.1515151515151 L 324.3157639656141 509.5959595959596 L 325.7639915941183 524.7474747474748 L 325.7640083554302 509.5959595959596 L 327.21215217737506 509.5959595959596 L 328.66029599932 481.8181818181818 L 331.5566674497691 481.8181818181818 L 333.0050626913919 481.8181818181818 L 333.0050794527038 509.5959595959596 L 334.45337412645546 509.5959595959596 L 337.3497455769046 461.6161616161616 L 338.7974536047412 360.6060606060606 L 338.797470366053 509.5959595959596 L 341.6939423843733 360.6060606060606 L 341.69395914568514 509.5959595959596 L 343.14230410337234 539.8989898989898 L 344.59046468662916 509.5959595959596 L 347.4869367049494 499.4949494949495 L 347.4869534662613 459.0909090909091 L 348.9346950167216 479.29292929292933 L 351.8314519773435 479.29292929292933 L 351.83146873865536 504.54545454545456 L 353.27929409567497 479.29292929292933 L 354.72748820155545 423.73737373737373 L 356.1756655461241 342.92929292929296 L 356.1756823074359 474.24242424242425 L 357.62387641331645 342.92929292929296 L 357.6238931746283 474.24242424242425 L 358.17475368885573 327.7777777777778 L 359.0719029060784 474.24242424242425 L 360.52013053458256 307.57575757575756 L 361.9683414017749 307.57575757575756 L 363.416468462408 550 L 364.8649642719019 542.4242424242425 L 366.3128399128571 542.4242424242425 L 367.7612519157917 542.4242424242425 L 369.2092616472418 550 L 372.10556605244346 550 L 373.55374339701217 537.3737373737374 L 375.00200454814006 537.3737373737374 L 376.45031598320355 550 L 377.89824190809435 550 L 378.7150206349558 370.7070707070707 L 378.76411451738915 550 L 378.97656414519474 550 L 379.3463522074155 550 L 380.79449602936046 550 L 382.2427907031121 550 L 383.04207062039336 550 L 383.0428584020507 550 L 383.69106861555184 550 L 388.03548332007483 519.6969696969697 L 388.03550008138666 550 L 389.4835768580841 489.3939393939394 L 390.93172068002906 489.3939393939394 L 390.9317374413409 550 L 393.8282429822849 550 L 395.27642032685355 550 L 396.72451386486284 438.8888888888889 L 398.17284206123827 550 L 399.6208182700646 550 L 401.0690626598807 398.4848484848485 L 402.51740761756787 398.4848484848485 L 403.96556820082463 550 L 405.4137287840814 550 L 408.30998290534757 529.7979797979798 L 409.7580261594213 524.7474747474748 L 411.20622026530185 524.7474747474748 L 412.65446465511786 524.7474747474748 L 414.1077039158678 504.54545454545456 L 414.1336169040009 504.54545454545456 L 415.55095343475006 494.44444444444446 L 416.99918106325424 484.34343434343435 L 418.4471572720806 469.19191919191917 L 419.1734584375302 448.98989898989896 L 419.1737433798318 448.98989898989896 L 419.8952508100899 448.98989898989896 L 419.8952675714018 550 L 421.3435119612178 448.98989898989896 L 424.2399169342907 550 L 425.68806075623564 550 L 427.1361878168687 448.98989898989896 L 428.5843819227492 550 L 430.03254250600594 550 L 431.4807198505746 550 L 432.92886367251947 448.98989898989896 L 434.3771080623356 550 L 435.82523512296865 443.93939393939394 L 437.27346275147283 443.93939393939394 L 437.2734795127847 550 L 438.7215562894822 443.93939393939394 L 440.16985096323384 550 L 441.6179445012432 443.93939393939394 L 443.06613860712366 443.93939393939394 L 443.06615536843555 550 L 444.5143662356279 433.83838383838383 L 445.9624765349491 550 L 445.96249329626096 550 L 447.4106538795177 550 L 448.8589485532694 550 L 448.8589653145812 550 L 450.30699180734314 550 L 451.75528648109474 550 L 453.2034303030397 550 L 453.20344706435156 550 L 454.6516411702321 550 L 457.5479958593693 539.8989898989898 L 458.9961564426261 550 L 459.8333839699548 378.2828282828283 L 459.8335348217616 378.2828282828283 L 460.44430026457104 368.1818181818182 L 461.8924608478278 550 L 463.34073876026764 368.1818181818182 L 464.78886582090064 550 L 466.23699288153375 550 L 466.2370096428456 550 L 467.68523727134976 550 L 469.1334481385422 550 L 470.58180985754115 529.7979797979798 L 470.5818266188531 550 L 473.4779466496243 529.7979797979798 L 474.92640893649457 519.6969696969697 L 474.9264256978064 550 L 476.374251054826 499.4949494949495 L 477.82252896726584 499.4949494949495 L 480.08649612129625 433.83838383838383 L 480.7187998498438 433.83838383838383 L 482.16704423965984 433.83838383838383 L 482.1670610009717 550 L 483.6151545389811 433.83838383838383 L 483.6151713002929 550 L 485.06356654191575 550 L 486.5115595120539 550 L 487.9597871405581 550 L 489.4081488595572 550 L 490.85605802313614 550 L 490.8560747844479 550 L 492.30537513691115 550 L 493.75236242833773 550 L 495.200942044391 539.8989898989898 L 496.6488176853463 539.8989898989898 L 498.0968944620437 550 L 499.54512209054786 509.5959595959596 L 499.5451388518598 550 L 500.12982369341745 418.6868686868687 L 500.1379194070451 418.6868686868687 L 500.993366480364 418.6868686868687 L 502.4415773475563 550 L 503.8896206016301 418.6868686868687 L 505.3377811848869 418.6868686868687 L 508.23421968058346 550 L 509.68231321859275 550 L 509.68232997990464 550 L 511.13065817628006 550 L 512.5786511464182 550 L 514.0271637172241 550 L 515.4750896421148 550 L 515.4751064034266 550 L 516.9232669866834 550 L 518.3715784217469 509.5959595959596 L 519.8197222436918 499.4949494949495 L 520.4081616191058 408.5858585858586 L 520.4089661620751 398.4848484848485 L 522.7158590357749 398.4848484848485 L 524.1641034255911 398.4848484848485 L 524.9986659043343 550 L 524.9988838013884 550 L 524.999051414507 550 L 525.6737109781209 550 L 525.6737277394327 550 L 527.0605754439113 550 L 529.956997178296 539.8989898989898 L 529.9570139396078 550 L 531.4049901484342 539.8989898989898 L 532.8530836864436 539.8989898989898 L 534.3016297798731 539.8989898989898 L 534.3016465411849 550 L 537.1977665719562 550 L 538.6463294266975 433.83838383838383 L 540.0940877384697 383.33333333333337 L 540.0941044997816 550 L 540.657519236591 383.33333333333337 L 541.5424997414043 464.14141414141415 L 548.7832356124409 494.44444444444446 L 549.173338384634 494.44444444444446 L 551.6795735402662 494.44444444444446 L 553.1277173622111 494.44444444444446 L 554.5758947067798 494.44444444444446 L 558.9206949214754 383.33333333333337 L 561.8167646683112 289.8989898989899 L 565.417396159116 550 L 567.6094740465857 539.8989898989898 L 570.5058957809704 489.3939393939394 L 571.9539725576678 489.3939393939394 L 573.4022672314195 489.3939393939394 L 574.8503942920526 489.3939393939394 L 577.7470674461152 456.5656565656566 L 579.1950268936296 456.5656565656566 L 580.6435059418117 413.6363636363636 L 581.2469466913391 337.8787878787879 L 582.0911972083364 337.8787878787879 L 583.539391314217 337.8787878787879 L 584.9878200784634 337.8787878787879 L 586.4361482748388 532.3232323232323 L 587.8839401092347 481.8181818181818 L 592.2284721429406 363.13131313131316 L 595.1249776838846 353.030303030303 L 596.5731382671414 353.030303030303 L 598.0212150438389 342.92929292929296 L 602.0264143189709 241.91919191919192 L 602.3657470775448 241.91919191919192 L 603.8140417512965 241.91919191919192 L 605.2623196637362 229.29292929292927 L 606.7108657571657 550 L 608.1585235010668 542.4242424242425 L 609.6068014135066 446.4646464646465 L 611.0549117128278 340.4040404040404 L 611.3635377480772 340.4040404040404 L 611.4696871360766 340.4040404040404 L 611.5286701925064 330.3030303030303 L 612.5030052508371 330.3030303030303 L 613.9511323114701 330.3030303030303 L 615.3993264173507 297.47474747474746 L 616.8475875684786 267.1717171717172 L 618.2958654809183 259.59595959595964 L 619.7441266320463 224.24242424242425 L 621.1922034087438 214.14141414141415 L 621.7261852819297 110.60606060606062 L 626.9849965935776 550 L 628.4331068928989 456.5656565656566 L 631.3296124338428 360.6060606060606 L 632.7775551200455 360.6060606060606 L 635.673876286559 350.50505050505046 L 637.1221039150632 279.7979797979798 L 639.6636551547812 252.02020202020202 L 640.8130788767851 252.02020202020202 L 640.8133302964629 252.02020202020202 L 641.4665521422098 252.02020202020202 L 642.9146792028429 231.8181818181818 L 644.3627895021641 231.8181818181818 L 645.8112182664106 231.8181818181818 L 647.2593956109793 231.8181818181818 L 648.7075226716123 363.13131313131316 L 650.155565925686 532.3232323232323 L 654.5001147207039 502.020202020202 L 655.94835911052 499.4949494949495 L 658.8447808449046 390.9090909090909 L 661.7410684887946 277.2727272727273 L 664.6373058487487 239.39393939393938 L 670.4310041444229 522.2222222222222 L 671.878427229958 451.5151515151515 L 673.3267051423977 416.16161616161617 L 674.774932770902 416.16161616161617 L 676.0743534727269 416.16161616161617 L 676.0746886989641 416.16161616161617 L 676.2229927862876 416.16161616161617 L 679.1193642367367 390.9090909090909 L 680.5674912973698 375.75757575757575 L 682.6552132572087 267.1717171717172 L 682.6558501870593 267.1717171717172 L 683.4637789412595 267.1717171717172 L 686.3604520953221 267.1717171717172 L 687.80871324645 550 L 689.256622410029 514.6464646464647 L 693.6009365466807 411.1111111111111 L 695.0491474138731 411.1111111111111 L 696.4974756102484 411.1111111111111 L 697.9460384649898 411.1111111111111 L 699.389422074367 380.80808080808083 L 700.8372641926984 373.2323232323232 L 705.1815950906621 370.7070707070707 L 708.0782179607891 504.54545454545456 L 709.5264288279814 486.86868686868684 L 712.4226494266238 403.5353535353535 L 713.870642396762 388.38383838383834 L 718.2154426114577 332.8282828282828 L 719.6638210917686 332.8282828282828 L 721.1123001399507 300 L 722.5681541653505 300 L 723.0925150455297 234.34343434343435 L 723.0931352140684 234.34343434343435 L 723.0932860658752 234.34343434343435 L 724.0079005700543 224.24242424242425 L 725.456295811677 224.24242424242425 L 726.9045904854288 191.41414141414145 L 729.8007943227593 524.7474747474748 L 731.2491225191347 524.7474747474748 L 732.6972328184559 486.86868686868684 L 734.1453598790889 365.6565656565657 L 737.0419995105278 365.6565656565657 L 739.9383206770414 310.1010101010101 L 741.3865147829218 300 L 742.8346250822431 264.64646464646466 L 743.6542867547441 264.64646464646466 L 744.2825342458219 264.64646464646466 L 745.7309462487566 264.64646464646466 L 747.1791906385727 264.64646464646466 L 750.075293908032 550 L 751.523789717526 539.8989898989898 L 752.9721849591488 529.7979797979798 L 755.8680368089302 514.6464646464647 L 757.3162979600583 514.6464646464647 L 758.4728452396021 550 L 761.6609473229472 436.3636363636364 L 763.1091917127632 416.16161616161617 L 763.906527317869 416.16161616161617 L 764.5570505924065 416.16161616161617 L 766.005244698287 416.16161616161617 L 767.4535728946624 416.16161616161617 L 770.3499108224879 438.8888888888889 L 773.2463996021199 413.6363636363636 L 774.5781696358317 403.5353535353535 L 774.6941579138921 403.5353535353535 L 776.1423520197726 403.5353535353535 L 777.5906969774599 403.5353535353535 L 779.0389916512115 403.5353535353535 L 780.4871522344682 398.4848484848485 L 781.9353966242843 378.2828282828283 L 783.3838086272191 368.1818181818182 L 784.8314328484963 347.979797979798 L 786.279828090119 347.979797979798 L 789.1763671536868 550 L 789.564810556006 539.8989898989898 L 789.5651290209313 539.8989898989898 L 790.3592799767839 527.2727272727273 L 790.6247623953096 527.2727272727273 L 792.0726212749529 466.6666666666667 L 793.5208321421453 461.6161616161616 L 794.9687077831005 451.5151515151515 L 796.4168348437336 451.5151515151515 L 797.8652300853564 451.5151515151515 L 799.313407429925 451.5151515151515 L 802.2100135387402 431.3131313131313 L 803.6578891796953 416.16161616161617 L 804.3065016646812 365.6565656565657 L 805.1058989111453 365.6565656565657 L 808.0026391104554 365.6565656565657 L 810.8994631163247 499.4949494949495 L 812.3472549507205 469.19191919191917 L 813.7954658179129 448.98989898989896 L 815.2432073683733 433.83838383838383 L 816.6915355647486 433.83838383838383 L 819.5881919574994 433.83838383838383 L 821.0366877669933 426.26262626262627 L 825.3804655416656 360.6060606060606 L 828.7158157496871 388.38383838383834 L 831.173660997984 474.24242424242425 L 832.3220622799646 474.24242424242425 L 832.3238054563978 474.24242424242425 L 834.0700659710569 474.24242424242425 L 835.5177739988934 474.24242424242425 L 836.965968104774 474.24242424242425 L 838.4145980047629 474.24242424242425 L 839.8632111434397 464.14141414141415 L 841.3109526939 464.14141414141415 L 842.7591132771569 464.14141414141415 L 845.6550656948095 438.8888888888889 L 847.1033100846255 438.8888888888889 L 848.5517220875602 438.8888888888889 L 850 438.8888888888889" stroke-width="2.0" fill="none" />

  <!-- Title -->
  <text x="450"
        y="25"
        font-family="-apple-system, system-ui, BlinkMacSystemFont, Roboto" 
        dominant-baseline="middle" 
        text-anchor="middle" 
        font-size="18" 
        fill="#74838f" 
        font-weight="700">
    Burndown
  </text>
</svg>
